<?xml version="1.0" encoding="UTF-8" standalone="no"?>
<!-- Created with Inkscape (http://www.inkscape.org/) -->

<svg
   width="138.89532mm"
   height="151.79771mm"
   viewBox="0 0 138.89532 151.79771"
   version="1.1"
   id="svg1"
   xml:space="preserve"
   xmlns:inkscape="http://www.inkscape.org/namespaces/inkscape"
   xmlns:sodipodi="http://sodipodi.sourceforge.net/DTD/sodipodi-0.dtd"
   xmlns="http://www.w3.org/2000/svg"
   xmlns:svg="http://www.w3.org/2000/svg"><sodipodi:namedview
     id="namedview1"
     pagecolor="#ffffff"
     bordercolor="#000000"
     borderopacity="0.25"
     inkscape:showpageshadow="2"
     inkscape:pageopacity="0.0"
     inkscape:pagecheckerboard="0"
     inkscape:deskcolor="#d1d1d1"
     inkscape:document-units="mm" /><defs
     id="defs1" /><g
     inkscape:label="Layer 1"
     inkscape:groupmode="layer"
     id="layer1"
     inkscape:export-filename="redBlob.svg"
     inkscape:export-xdpi="300"
     inkscape:export-ydpi="300"
     transform="translate(-22.650441,-50.394179)"><g
       style="fill:none"
       id="g1"
       transform="matrix(0.26458333,0,0,0.26458333,53.718717,50.266828)"><path
         d="M 65.8006,32.7586 C 132.221,0.315506 207.962,-10.8375 272.915,14.0628 338.67,39.2707 394.84,93.1756 406.387,163.326 416.901,227.199 352.423,279.34 326.884,341.941 298.126,412.434 314.145,504.739 249.774,547.223 181.515,592.274 92.4987,574.035 23.0422,542.474 -43.5768,512.201 -93.0529,454.188 -111.739,382.949 -129.099,316.764 -104.137,246.757 -71.4401,182.264 -39.9554,120.161 3.07013,63.3994 65.8006,32.7586 Z"
         fill="#ef476f"
         id="path1" /></g><g
       style="fill:none"
       id="g2"
       transform="matrix(0.26458333,0,0,0.26458333,122.49885,81.903198)"><circle
         cx="10.5"
         cy="10.5"
         r="10.5"
         fill="#000000"
         id="circle1" /><circle
         cx="91.5"
         cy="13.5"
         r="10.5"
         fill="#000000"
         id="circle2" /><path
         d="M 13.4275,55 C 22.27,79.5882 30.7691,85.9569 50.9836,86.7268 70.4189,85.7087 78.6264,79.217 87.975,56.0212"
         stroke="#000000"
         stroke-width="7"
         stroke-linecap="round"
         id="path2" /></g></g></svg>
