<svg width="198" height="198" viewBox="0 0 198 198" fill="none" xmlns="http://www.w3.org/2000/svg">
<path d="M118.057 138.683L131.67 161.04M96.9375 151.552L110.55 173.91M139.177 125.813L152.79 148.17M81.4275 46.7773L53.2125 63.9375L40.3425 42.8175C35.64 35.0625 38.115 24.8325 45.87 20.13C53.625 15.4275 63.855 17.9024 68.5575 25.6574L81.4275 46.7773ZM97.5151 75.5698L71.445 91.4101C56.265 100.65 51.645 119.295 58.9875 134.145L75.9 168.63C81.345 179.768 94.5451 183.645 105.105 177.127L158.152 144.87C168.795 138.435 171.353 124.987 164.01 115.005L141.158 84.1501C131.258 70.7851 112.695 66.3298 97.5151 75.5698ZM46.4644 67.8032L88.7423 42.0583L105.906 70.2436L63.6277 95.9885L46.4644 67.8032Z" stroke="#292D32" stroke-width="10" stroke-linecap="round" stroke-linejoin="round"/>
</svg>
