<svg width="225" height="225" viewBox="0 0 225 225" fill="none" xmlns="http://www.w3.org/2000/svg">
<path d="M58.125 53.9062H51.2813M173.719 53.9062H166.875M71.7187 101.531H92.0626M132.937 101.531H153.281M112.5 159.375V168.75M112.5 196.875V206.25M28.125 168.75L18.75 206.25M196.875 168.75L206.25 206.25M136.406 18.75H88.5937C71.7187 18.75 67.9688 27.1876 65.8125 37.5938L58.125 74.3437H166.875L159.187 37.5938C157.031 27.1876 153.281 18.75 136.406 18.75ZM180.375 134.25C181.125 142.219 174.75 149.063 166.594 149.063H153.844C146.531 149.063 145.5 145.969 144.187 142.031L142.781 138C140.906 132.468 139.687 128.719 129.844 128.719H95.0624C85.3124 128.719 83.8124 132.937 82.1249 138L80.7187 142.031C79.4062 145.875 78.3749 149.063 71.0625 149.063H58.3124C50.1562 149.063 43.7812 142.219 44.5312 134.25L48.375 92.8127C49.3125 82.594 51.2811 74.2498 69.0936 74.2498H155.812C173.625 74.2498 175.594 82.594 176.531 92.8127L180.375 134.25Z" stroke="#292D32" stroke-width="9" stroke-linecap="round" stroke-linejoin="round"/>
</svg>
