<svg width="197" height="197" viewBox="0 0 197 197" fill="none" xmlns="http://www.w3.org/2000/svg">
<path d="M162.361 76.4196C162.771 73.2184 163.017 69.8529 163.017 66.4054C163.017 43.7504 144.795 25.4459 122.304 25.4459C109.007 25.4459 97.1866 31.8483 89.717 41.7804C82.3295 31.8483 70.5095 25.4459 57.1299 25.4459C34.6391 25.4459 16.4166 43.7504 16.4166 66.4054C16.4166 117.79 63.9429 147.996 85.2025 155.302C87.665 156.205 91.7692 156.205 94.2317 155.302C94.6421 155.138 95.0525 155.055 95.4629 154.809M162.361 76.4196C158.585 74.7779 154.481 73.875 150.13 73.875C140.116 73.875 131.251 78.7179 125.752 86.1054C120.17 78.7179 111.305 73.875 101.291 73.875C84.4637 73.875 70.8379 87.5829 70.8379 104.574C70.8379 126.572 82.4937 143.4 95.4629 154.809M162.361 76.4196C173.114 81.1804 180.583 91.9333 180.583 104.574C180.583 142.989 145.041 165.644 129.117 171.062C127.229 171.718 124.192 171.718 122.304 171.062C115.491 168.763 105.067 163.264 95.4629 154.809" stroke="#292D32" stroke-width="13" stroke-linecap="round" stroke-linejoin="round"/>
</svg>
