<svg width="204" height="204" viewBox="0 0 204 204" fill="none" xmlns="http://www.w3.org/2000/svg">
<path d="M37.485 142.375C35.445 166.94 53.975 187 78.625 187H119.34C147.05 187 166.09 164.645 161.5 137.275C156.655 108.545 128.945 85 99.79 85C68.17 85 40.12 110.84 37.485 142.375Z" stroke="#292D32" stroke-width="15" stroke-linecap="round" stroke-linejoin="round"/>
<path d="M88.995 63.75C100.731 63.75 110.245 54.2361 110.245 42.5C110.245 30.7639 100.731 21.25 88.995 21.25C77.2589 21.25 67.745 30.7639 67.745 42.5C67.745 54.2361 77.2589 63.75 88.995 63.75Z" stroke="#292D32" stroke-width="15" stroke-linecap="round" stroke-linejoin="round"/>
<path d="M147.05 73.95C156.439 73.95 164.05 66.3388 164.05 56.95C164.05 47.5612 156.439 39.95 147.05 39.95C137.661 39.95 130.05 47.5612 130.05 56.95C130.05 66.3388 137.661 73.95 147.05 73.95Z" stroke="#292D32" stroke-width="15" stroke-linecap="round" stroke-linejoin="round"/>
<path d="M178.5 107.95C185.542 107.95 191.25 102.242 191.25 95.2C191.25 88.1584 185.542 82.45 178.5 82.45C171.458 82.45 165.75 88.1584 165.75 95.2C165.75 102.242 171.458 107.95 178.5 107.95Z" stroke="#292D32" stroke-width="15" stroke-linecap="round" stroke-linejoin="round"/>
<path d="M33.745 90.95C43.1338 90.95 50.745 83.3388 50.745 73.95C50.745 64.5612 43.1338 56.95 33.745 56.95C24.3562 56.95 16.745 64.5612 16.745 73.95C16.745 83.3388 24.3562 90.95 33.745 90.95Z" stroke="#292D32" stroke-width="15" stroke-linecap="round" stroke-linejoin="round"/>
</svg>
