<svg width="207" height="207" viewBox="0 0 207 207" fill="none" xmlns="http://www.w3.org/2000/svg">
<path d="M17.25 17.25H32.2575C41.5725 17.25 48.9038 25.2712 48.1275 34.5L40.9688 120.405C39.7612 134.464 50.8874 146.539 65.0324 146.539H156.889C169.309 146.539 180.176 136.361 181.125 124.028L185.782 59.34C186.817 45.0225 175.95 33.3787 161.546 33.3787H50.1976M77.625 69H181.125M150.938 178.969C150.938 184.923 146.111 189.75 140.156 189.75C134.202 189.75 129.375 184.923 129.375 178.969C129.375 173.014 134.202 168.188 140.156 168.188C146.111 168.188 150.938 173.014 150.938 178.969ZM81.9375 178.969C81.9375 184.923 77.1106 189.75 71.1562 189.75C65.2019 189.75 60.375 184.923 60.375 178.969C60.375 173.014 65.2019 168.188 71.1562 168.188C77.1106 168.188 81.9375 173.014 81.9375 178.969Z" stroke="#292D32" stroke-width="15" stroke-miterlimit="10" stroke-linecap="round" stroke-linejoin="round"/>
</svg>
